<mxfile host="Electron" modified="2024-06-26T14:04:30.793Z" agent="Mozilla/5.0 (Windows NT 10.0; Win64; x64) AppleWebKit/537.36 (KHTML, like Gecko) draw.io/24.5.1 Chrome/124.0.6367.207 Electron/30.0.6 Safari/537.36" etag="alavYPqalcrOi2KRE7tg" version="24.5.1" type="device">
  <diagram name="tapir" id="EYhuo7ovVSXExfLLNNKf">
    <mxGraphModel dx="392" dy="548" grid="1" gridSize="10" guides="1" tooltips="1" connect="1" arrows="1" fold="1" page="1" pageScale="1" pageWidth="850" pageHeight="1100" math="0" shadow="0">
      <root>
        <mxCell id="0" />
        <mxCell id="1" parent="0" />
        <mxCell id="q1Gav48uPuiSQeMXqH3i-1" value="&lt;font style=&quot;font-size: 10px;&quot;&gt;&lt;b style=&quot;&quot;&gt;cl_commit&lt;/b&gt;&lt;br&gt;&lt;u style=&quot;color: rgb(77, 153, 0);&quot;&gt;all servers:&lt;/u&gt;&lt;br&gt;&lt;u style=&quot;color: rgb(77, 153, 0);&quot;&gt;locked&lt;/u&gt;&lt;br&gt;&lt;/font&gt;" style="rounded=0;orthogonalLoop=1;jettySize=auto;html=1;exitX=0;exitY=0.5;exitDx=0;exitDy=0;entryX=1;entryY=0.5;entryDx=0;entryDy=0;" edge="1" parent="1" source="q1Gav48uPuiSQeMXqH3i-3" target="q1Gav48uPuiSQeMXqH3i-5">
          <mxGeometry x="0.0476" relative="1" as="geometry">
            <mxPoint x="243.25126265847098" y="234.14213562373084" as="sourcePoint" />
            <mxPoint x="208" y="270" as="targetPoint" />
            <mxPoint as="offset" />
          </mxGeometry>
        </mxCell>
        <mxCell id="q1Gav48uPuiSQeMXqH3i-2" value="&lt;span style=&quot;font-size: 10px;&quot;&gt;&lt;b style=&quot;&quot;&gt;cl_abort&lt;/b&gt;&lt;br&gt;&lt;u style=&quot;color: rgb(153, 0, 0);&quot;&gt;some servers:&lt;/u&gt;&lt;br&gt;&lt;/span&gt;&lt;u style=&quot;color: rgb(153, 0, 0);&quot;&gt;not_okay&lt;/u&gt;" style="edgeStyle=none;rounded=0;orthogonalLoop=1;jettySize=auto;html=1;exitX=1;exitY=0.5;exitDx=0;exitDy=0;entryX=0;entryY=0.5;entryDx=0;entryDy=0;" edge="1" parent="1" source="q1Gav48uPuiSQeMXqH3i-3" target="q1Gav48uPuiSQeMXqH3i-7">
          <mxGeometry x="0.0476" relative="1" as="geometry">
            <mxPoint as="offset" />
            <mxPoint x="412" y="320" as="targetPoint" />
          </mxGeometry>
        </mxCell>
        <mxCell id="q1Gav48uPuiSQeMXqH3i-3" value="&lt;font style=&quot;font-size: 13px;&quot;&gt;cl_prepared&lt;/font&gt;" style="ellipse;whiteSpace=wrap;html=1;strokeColor=#000000;" vertex="1" parent="1">
          <mxGeometry x="255" y="200" width="80" height="40" as="geometry" />
        </mxCell>
        <mxCell id="q1Gav48uPuiSQeMXqH3i-4" value="&lt;span style=&quot;font-size: 10px;&quot;&gt;&lt;b style=&quot;&quot;&gt;cl_ready_c&lt;/b&gt;&lt;br&gt;&lt;font style=&quot;&quot; color=&quot;#4d9900&quot;&gt;&lt;u&gt;all servers:&lt;/u&gt;&lt;/font&gt;&lt;br&gt;&lt;font style=&quot;&quot; color=&quot;#4d9900&quot;&gt;&lt;u&gt;Committed&lt;/u&gt;&lt;/font&gt;&lt;br&gt;&lt;/span&gt;" style="edgeStyle=orthogonalEdgeStyle;curved=1;rounded=0;orthogonalLoop=1;jettySize=auto;html=1;entryX=0;entryY=0.5;entryDx=0;entryDy=0;exitX=0.5;exitY=0;exitDx=0;exitDy=0;" edge="1" parent="1" source="q1Gav48uPuiSQeMXqH3i-5" target="q1Gav48uPuiSQeMXqH3i-39">
          <mxGeometry x="0.0256" y="-10" relative="1" as="geometry">
            <Array as="points">
              <mxPoint x="110" y="150" />
            </Array>
            <mxPoint x="135" y="140" as="sourcePoint" />
            <mxPoint as="offset" />
            <mxPoint x="260" y="145" as="targetPoint" />
          </mxGeometry>
        </mxCell>
        <mxCell id="q1Gav48uPuiSQeMXqH3i-5" value="&lt;font style=&quot;font-size: 13px;&quot; color=&quot;#006600&quot;&gt;cl_committed&lt;/font&gt;" style="ellipse;whiteSpace=wrap;html=1;strokeColor=#00CC00;" vertex="1" parent="1">
          <mxGeometry x="70" y="200" width="80" height="40" as="geometry" />
        </mxCell>
        <mxCell id="q1Gav48uPuiSQeMXqH3i-6" value="&lt;span style=&quot;font-size: 10px;&quot;&gt;&lt;b&gt;cl_ready_a&lt;/b&gt;&lt;br&gt;&lt;font style=&quot;&quot; color=&quot;#990000&quot;&gt;&lt;u&gt;all servers:&lt;/u&gt;&lt;/font&gt;&lt;br&gt;&lt;font style=&quot;&quot; color=&quot;#990000&quot;&gt;&lt;u&gt;Aborted&lt;/u&gt;&lt;/font&gt;&lt;br&gt;&lt;/span&gt;" style="edgeStyle=orthogonalEdgeStyle;curved=1;rounded=0;orthogonalLoop=1;jettySize=auto;html=1;entryX=1;entryY=0.5;entryDx=0;entryDy=0;exitX=0.5;exitY=0;exitDx=0;exitDy=0;" edge="1" parent="1" source="q1Gav48uPuiSQeMXqH3i-7" target="q1Gav48uPuiSQeMXqH3i-39">
          <mxGeometry x="0.013" y="10" relative="1" as="geometry">
            <Array as="points">
              <mxPoint x="478" y="150" />
            </Array>
            <mxPoint x="482" y="180" as="sourcePoint" />
            <mxPoint as="offset" />
            <mxPoint x="330" y="145" as="targetPoint" />
          </mxGeometry>
        </mxCell>
        <mxCell id="q1Gav48uPuiSQeMXqH3i-7" value="&lt;font style=&quot;font-size: 13px;&quot; color=&quot;#990000&quot;&gt;cl_aborted&lt;/font&gt;" style="ellipse;whiteSpace=wrap;html=1;strokeColor=#FF3333;" vertex="1" parent="1">
          <mxGeometry x="440" y="200" width="75" height="40" as="geometry" />
        </mxCell>
        <mxCell id="q1Gav48uPuiSQeMXqH3i-8" value="" style="rounded=1;whiteSpace=wrap;html=1;fillColor=none;strokeColor=#00CC00;dashed=1;" vertex="1" parent="1">
          <mxGeometry x="70" y="330.28999999999996" width="320" height="50" as="geometry" />
        </mxCell>
        <mxCell id="q1Gav48uPuiSQeMXqH3i-9" value="" style="edgeStyle=none;rounded=0;orthogonalLoop=1;jettySize=auto;html=1;exitX=1;exitY=1;exitDx=0;exitDy=0;entryX=0.5;entryY=0;entryDx=0;entryDy=0;" edge="1" parent="1" source="q1Gav48uPuiSQeMXqH3i-26" target="q1Gav48uPuiSQeMXqH3i-23">
          <mxGeometry x="0.1337" y="-12" relative="1" as="geometry">
            <mxPoint y="-1" as="offset" />
            <mxPoint x="295" y="415" as="sourcePoint" />
            <mxPoint x="500" y="495" as="targetPoint" />
          </mxGeometry>
        </mxCell>
        <mxCell id="q1Gav48uPuiSQeMXqH3i-10" value="" style="edgeStyle=none;rounded=0;orthogonalLoop=1;jettySize=auto;html=1;exitX=1;exitY=1;exitDx=0;exitDy=0;entryX=0.5;entryY=0;entryDx=0;entryDy=0;" edge="1" parent="1" source="q1Gav48uPuiSQeMXqH3i-13" target="q1Gav48uPuiSQeMXqH3i-19">
          <mxGeometry relative="1" as="geometry" />
        </mxCell>
        <mxCell id="q1Gav48uPuiSQeMXqH3i-11" value="&lt;font color=&quot;#0000ff&quot;&gt;&lt;i&gt;Lock not available&lt;/i&gt;&lt;/font&gt;" style="edgeLabel;html=1;align=center;verticalAlign=middle;resizable=0;points=[];fontColor=#007FFF;" vertex="1" connectable="0" parent="q1Gav48uPuiSQeMXqH3i-10">
          <mxGeometry x="-0.3452" y="2" relative="1" as="geometry">
            <mxPoint x="19" y="-1" as="offset" />
          </mxGeometry>
        </mxCell>
        <mxCell id="q1Gav48uPuiSQeMXqH3i-12" value="&lt;font&gt;nok&lt;/font&gt;" style="edgeLabel;html=1;align=center;verticalAlign=middle;resizable=0;points=[];fontColor=#333333;fontStyle=1" vertex="1" connectable="0" parent="q1Gav48uPuiSQeMXqH3i-10">
          <mxGeometry x="0.389" y="1" relative="1" as="geometry">
            <mxPoint y="2" as="offset" />
          </mxGeometry>
        </mxCell>
        <mxCell id="q1Gav48uPuiSQeMXqH3i-13" value="&lt;font style=&quot;font-size: 13px;&quot;&gt;prepared&lt;/font&gt;" style="ellipse;whiteSpace=wrap;html=1;" vertex="1" parent="1">
          <mxGeometry x="330" y="260" width="80" height="40" as="geometry" />
        </mxCell>
        <mxCell id="q1Gav48uPuiSQeMXqH3i-14" style="edgeStyle=orthogonalEdgeStyle;curved=1;rounded=0;orthogonalLoop=1;jettySize=auto;html=1;exitX=0;exitY=0.5;exitDx=0;exitDy=0;entryX=0;entryY=1;entryDx=0;entryDy=0;" edge="1" parent="1" source="q1Gav48uPuiSQeMXqH3i-17" target="q1Gav48uPuiSQeMXqH3i-17">
          <mxGeometry relative="1" as="geometry">
            <mxPoint x="180" y="225" as="targetPoint" />
          </mxGeometry>
        </mxCell>
        <mxCell id="q1Gav48uPuiSQeMXqH3i-15" value="" style="edgeStyle=orthogonalEdgeStyle;rounded=0;orthogonalLoop=1;jettySize=auto;html=1;exitX=1;exitY=0.5;exitDx=0;exitDy=0;entryX=0;entryY=0.5;entryDx=0;entryDy=0;" edge="1" parent="1" source="q1Gav48uPuiSQeMXqH3i-17" target="q1Gav48uPuiSQeMXqH3i-13">
          <mxGeometry x="-0.3333" y="-10" relative="1" as="geometry">
            <mxPoint x="340" y="130" as="sourcePoint" />
            <mxPoint x="400" y="240" as="targetPoint" />
            <mxPoint as="offset" />
          </mxGeometry>
        </mxCell>
        <mxCell id="q1Gav48uPuiSQeMXqH3i-16" value="&lt;font&gt;prepare&lt;br&gt;&lt;u style=&quot;--tw-border-spacing-x: 0; --tw-border-spacing-y: 0; --tw-translate-x: 0; --tw-translate-y: 0; --tw-rotate: 0; --tw-skew-x: 0; --tw-skew-y: 0; --tw-scale-x: 1; --tw-scale-y: 1; --tw-pan-x: ; --tw-pan-y: ; --tw-pinch-zoom: ; --tw-scroll-snap-strictness: proximity; --tw-ordinal: ; --tw-slashed-zero: ; --tw-numeric-figure: ; --tw-numeric-spacing: ; --tw-numeric-fraction: ; --tw-ring-inset: ; --tw-ring-offset-width: 0px; --tw-ring-offset-color: #fff; --tw-ring-color: rgb(59 130 246 / 0.5); --tw-ring-offset-shadow: 0 0 #0000; --tw-ring-shadow: 0 0 #0000; --tw-shadow: 0 0 #0000; --tw-shadow-colored: 0 0 #0000; --tw-blur: ; --tw-brightness: ; --tw-contrast: ; --tw-grayscale: ; --tw-hue-rotate: ; --tw-invert: ; --tw-saturate: ; --tw-sepia: ; --tw-drop-shadow: ; --tw-backdrop-blur: ; --tw-backdrop-brightness: ; --tw-backdrop-contrast: ; --tw-backdrop-grayscale: ; --tw-backdrop-hue-rotate: ; --tw-backdrop-invert: ; --tw-backdrop-opacity: ; --tw-backdrop-saturate: ; --tw-backdrop-sepia: ; border-color: var(--border-color); color: rgb(0, 0, 0); font-weight: 400;&quot;&gt;cl_prepared&lt;/u&gt;&lt;br&gt;&lt;/font&gt;" style="edgeLabel;html=1;align=center;verticalAlign=middle;resizable=0;points=[];fontColor=#333333;fontStyle=1" vertex="1" connectable="0" parent="q1Gav48uPuiSQeMXqH3i-15">
          <mxGeometry x="-0.1556" y="-3" relative="1" as="geometry">
            <mxPoint x="-1" y="-8" as="offset" />
          </mxGeometry>
        </mxCell>
        <mxCell id="q1Gav48uPuiSQeMXqH3i-17" value="&lt;font style=&quot;font-size: 13px;&quot;&gt;working&lt;/font&gt;" style="ellipse;whiteSpace=wrap;html=1;" vertex="1" parent="1">
          <mxGeometry x="70" y="260" width="80" height="40" as="geometry" />
        </mxCell>
        <mxCell id="q1Gav48uPuiSQeMXqH3i-18" value="" style="edgeStyle=none;rounded=0;orthogonalLoop=1;jettySize=auto;html=1;entryX=0.5;entryY=0;entryDx=0;entryDy=0;" edge="1" parent="1" source="q1Gav48uPuiSQeMXqH3i-19" target="q1Gav48uPuiSQeMXqH3i-23">
          <mxGeometry x="-0.1765" y="15" relative="1" as="geometry">
            <mxPoint as="offset" />
          </mxGeometry>
        </mxCell>
        <mxCell id="q1Gav48uPuiSQeMXqH3i-19" value="&lt;font style=&quot;font-size: 13px;&quot; color=&quot;#990000&quot;&gt;not_okay&lt;/font&gt;" style="ellipse;whiteSpace=wrap;html=1;strokeColor=#FF3333;" vertex="1" parent="1">
          <mxGeometry x="440" y="335.29" width="75" height="40" as="geometry" />
        </mxCell>
        <mxCell id="q1Gav48uPuiSQeMXqH3i-20" value="" style="edgeStyle=none;rounded=0;orthogonalLoop=1;jettySize=auto;html=1;entryX=0.5;entryY=0;entryDx=0;entryDy=0;exitX=0;exitY=1;exitDx=0;exitDy=0;" edge="1" parent="1" source="q1Gav48uPuiSQeMXqH3i-28" target="q1Gav48uPuiSQeMXqH3i-22">
          <mxGeometry relative="1" as="geometry">
            <mxPoint x="255" y="400" as="sourcePoint" />
          </mxGeometry>
        </mxCell>
        <mxCell id="q1Gav48uPuiSQeMXqH3i-21" value="" style="edgeStyle=none;rounded=0;orthogonalLoop=1;jettySize=auto;html=1;entryX=0.5;entryY=0;entryDx=0;entryDy=0;exitX=1;exitY=1;exitDx=0;exitDy=0;" edge="1" parent="1" source="q1Gav48uPuiSQeMXqH3i-28" target="q1Gav48uPuiSQeMXqH3i-23">
          <mxGeometry x="0.1337" y="-12" relative="1" as="geometry">
            <mxPoint y="-1" as="offset" />
            <mxPoint x="325" y="340" as="sourcePoint" />
          </mxGeometry>
        </mxCell>
        <mxCell id="q1Gav48uPuiSQeMXqH3i-22" value="&lt;font color=&quot;#4d9900&quot; style=&quot;font-size: 13px;&quot;&gt;committed&lt;/font&gt;" style="ellipse;whiteSpace=wrap;html=1;strokeColor=#00CC00;" vertex="1" parent="1">
          <mxGeometry x="75" y="440" width="80" height="40" as="geometry" />
        </mxCell>
        <mxCell id="q1Gav48uPuiSQeMXqH3i-23" value="&lt;font color=&quot;#990000&quot; style=&quot;font-size: 13px;&quot;&gt;aborted&lt;/font&gt;" style="ellipse;whiteSpace=wrap;html=1;strokeColor=#FF3333;" vertex="1" parent="1">
          <mxGeometry x="440" y="440" width="75" height="40" as="geometry" />
        </mxCell>
        <mxCell id="q1Gav48uPuiSQeMXqH3i-24" value="" style="shape=curlyBracket;whiteSpace=wrap;html=1;rounded=1;strokeColor=#00CC00;" vertex="1" parent="1">
          <mxGeometry x="60" y="330.28999999999996" width="20" height="50" as="geometry" />
        </mxCell>
        <mxCell id="q1Gav48uPuiSQeMXqH3i-25" value="&lt;font style=&quot;&quot; color=&quot;#00cc00&quot;&gt;&lt;span style=&quot;font-size: 11px;&quot;&gt;locked&lt;/span&gt;&lt;br&gt;&lt;font style=&quot;font-size: 12px;&quot;&gt;states&lt;/font&gt;&lt;/font&gt;" style="text;html=1;align=center;verticalAlign=middle;resizable=0;points=[];autosize=1;strokeColor=none;fillColor=none;" vertex="1" parent="1">
          <mxGeometry x="10" y="335.28999999999996" width="60" height="40" as="geometry" />
        </mxCell>
        <mxCell id="q1Gav48uPuiSQeMXqH3i-26" value="&lt;font style=&quot;font-size: 13px;&quot; color=&quot;#006600&quot;&gt;read_lock&lt;/font&gt;" style="ellipse;whiteSpace=wrap;html=1;strokeColor=#00CC00;" vertex="1" parent="1">
          <mxGeometry x="75" y="335.29" width="80" height="40" as="geometry" />
        </mxCell>
        <mxCell id="q1Gav48uPuiSQeMXqH3i-27" value="&lt;font style=&quot;font-size: 13px;&quot; color=&quot;#006600&quot;&gt;write_lock&lt;/font&gt;" style="ellipse;whiteSpace=wrap;html=1;strokeColor=#00CC00;" vertex="1" parent="1">
          <mxGeometry x="190" y="335.29" width="80" height="40" as="geometry" />
        </mxCell>
        <mxCell id="q1Gav48uPuiSQeMXqH3i-28" value="&lt;font style=&quot;font-size: 13px;&quot; color=&quot;#006600&quot;&gt;no_lock&lt;/font&gt;" style="ellipse;whiteSpace=wrap;html=1;strokeColor=#00CC00;" vertex="1" parent="1">
          <mxGeometry x="304" y="335.29" width="75" height="40" as="geometry" />
        </mxCell>
        <mxCell id="q1Gav48uPuiSQeMXqH3i-29" value="" style="rounded=0;orthogonalLoop=1;jettySize=auto;html=1;exitX=0;exitY=1;exitDx=0;exitDy=0;strokeColor=#000000;entryX=0.5;entryY=0;entryDx=0;entryDy=0;" edge="1" parent="1" source="q1Gav48uPuiSQeMXqH3i-13" target="q1Gav48uPuiSQeMXqH3i-26">
          <mxGeometry x="0.0606" y="-13" relative="1" as="geometry">
            <mxPoint x="330.251262658471" y="304.14213562373084" as="sourcePoint" />
            <mxPoint x="210" y="375" as="targetPoint" />
            <mxPoint as="offset" />
            <Array as="points" />
          </mxGeometry>
        </mxCell>
        <mxCell id="q1Gav48uPuiSQeMXqH3i-30" value="&lt;font&gt;acq_rd_lock&lt;/font&gt;" style="edgeLabel;html=1;align=center;verticalAlign=middle;resizable=0;points=[];fontColor=#333333;fontStyle=1" vertex="1" connectable="0" parent="q1Gav48uPuiSQeMXqH3i-29">
          <mxGeometry x="0.5039" y="-1" relative="1" as="geometry">
            <mxPoint x="19" y="-5" as="offset" />
          </mxGeometry>
        </mxCell>
        <mxCell id="q1Gav48uPuiSQeMXqH3i-31" value="" style="edgeStyle=none;rounded=0;orthogonalLoop=1;jettySize=auto;html=1;exitX=0.5;exitY=1;exitDx=0;exitDy=0;entryX=0.5;entryY=0;entryDx=0;entryDy=0;" edge="1" parent="1" source="q1Gav48uPuiSQeMXqH3i-26" target="q1Gav48uPuiSQeMXqH3i-22">
          <mxGeometry x="-0.32" y="-13" relative="1" as="geometry">
            <mxPoint x="110" y="415" as="sourcePoint" />
            <mxPoint x="165" y="490" as="targetPoint" />
            <mxPoint as="offset" />
          </mxGeometry>
        </mxCell>
        <mxCell id="q1Gav48uPuiSQeMXqH3i-32" value="&lt;font color=&quot;#333333&quot;&gt;&lt;b&gt;commit&lt;/b&gt;&lt;/font&gt;&lt;font color=&quot;#0000ff&quot;&gt;&lt;br&gt;&lt;i&gt;Lock released&lt;/i&gt;&lt;/font&gt;&lt;br&gt;&lt;font color=&quot;#66cc00&quot; style=&quot;text-decoration-line: underline;&quot;&gt;cl_committed&lt;/font&gt;" style="edgeStyle=none;rounded=0;orthogonalLoop=1;jettySize=auto;html=1;entryX=0.5;entryY=0;entryDx=0;entryDy=0;exitX=0.5;exitY=1;exitDx=0;exitDy=0;" edge="1" parent="1" source="q1Gav48uPuiSQeMXqH3i-27" target="q1Gav48uPuiSQeMXqH3i-22">
          <mxGeometry x="0.2889" y="-8" relative="1" as="geometry">
            <mxPoint x="176.25126265847075" y="379.1421356237312" as="sourcePoint" />
            <mxPoint x="180" y="500" as="targetPoint" />
            <mxPoint as="offset" />
          </mxGeometry>
        </mxCell>
        <mxCell id="q1Gav48uPuiSQeMXqH3i-33" value="&lt;font color=&quot;#0000ff&quot;&gt;&lt;i&gt;Lock acquired&lt;/i&gt;&lt;/font&gt;" style="rounded=0;orthogonalLoop=1;jettySize=auto;html=1;exitX=0;exitY=1;exitDx=0;exitDy=0;strokeColor=#000000;entryX=0.5;entryY=0;entryDx=0;entryDy=0;fillColor=#f5f5f5;" edge="1" parent="1" source="q1Gav48uPuiSQeMXqH3i-13" target="q1Gav48uPuiSQeMXqH3i-27">
          <mxGeometry x="-0.1944" y="-11" relative="1" as="geometry">
            <mxPoint x="330.251262658471" y="304.14213562373084" as="sourcePoint" />
            <mxPoint x="280" y="375" as="targetPoint" />
            <mxPoint as="offset" />
          </mxGeometry>
        </mxCell>
        <mxCell id="q1Gav48uPuiSQeMXqH3i-34" value="&lt;font&gt;acq_wr_lock&lt;/font&gt;" style="edgeLabel;html=1;align=center;verticalAlign=middle;resizable=0;points=[];fontColor=#333333;fontStyle=1" vertex="1" connectable="0" parent="q1Gav48uPuiSQeMXqH3i-33">
          <mxGeometry x="0.3524" y="-2" relative="1" as="geometry">
            <mxPoint x="5" y="-1" as="offset" />
          </mxGeometry>
        </mxCell>
        <mxCell id="q1Gav48uPuiSQeMXqH3i-35" value="&lt;font style=&quot;&quot;&gt;&lt;font color=&quot;#333333&quot;&gt;&lt;b&gt;abort&lt;/b&gt;&lt;/font&gt;&lt;font color=&quot;#0000ff&quot;&gt;&lt;br&gt;&lt;i&gt;Lock released&lt;/i&gt;&lt;/font&gt;&lt;br&gt;&lt;font style=&quot;&quot; color=&quot;#990000&quot;&gt;&lt;u&gt;cl_aborted&lt;/u&gt;&lt;/font&gt;&lt;/font&gt;" style="edgeStyle=none;rounded=0;orthogonalLoop=1;jettySize=auto;html=1;exitX=1;exitY=1;exitDx=0;exitDy=0;entryX=0.5;entryY=0;entryDx=0;entryDy=0;" edge="1" parent="1" source="q1Gav48uPuiSQeMXqH3i-27" target="q1Gav48uPuiSQeMXqH3i-23">
          <mxGeometry x="0.7698" y="23" relative="1" as="geometry">
            <mxPoint as="offset" />
            <mxPoint x="389.748737341529" y="409.14213562373084" as="sourcePoint" />
            <mxPoint x="485" y="480" as="targetPoint" />
          </mxGeometry>
        </mxCell>
        <mxCell id="q1Gav48uPuiSQeMXqH3i-36" value="&lt;b&gt;&lt;font style=&quot;font-size: 17px;&quot; face=&quot;Times New Roman&quot;&gt;(a)&lt;/font&gt;&lt;/b&gt;" style="text;html=1;align=center;verticalAlign=middle;resizable=0;points=[];autosize=1;strokeColor=none;fillColor=none;" vertex="1" parent="1">
          <mxGeometry x="20" y="210" width="40" height="30" as="geometry" />
        </mxCell>
        <mxCell id="q1Gav48uPuiSQeMXqH3i-37" value="&lt;b&gt;&lt;font style=&quot;font-size: 17px;&quot; face=&quot;Times New Roman&quot;&gt;(b)&lt;/font&gt;&lt;/b&gt;" style="text;html=1;align=center;verticalAlign=middle;resizable=0;points=[];autosize=1;strokeColor=none;fillColor=none;" vertex="1" parent="1">
          <mxGeometry x="20" y="450" width="40" height="30" as="geometry" />
        </mxCell>
        <mxCell id="q1Gav48uPuiSQeMXqH3i-38" value="&lt;b&gt;user_commit&lt;/b&gt;" style="edgeStyle=orthogonalEdgeStyle;rounded=0;orthogonalLoop=1;jettySize=auto;html=1;exitX=0.5;exitY=1;exitDx=0;exitDy=0;entryX=0.5;entryY=0;entryDx=0;entryDy=0;" edge="1" parent="1" source="q1Gav48uPuiSQeMXqH3i-39" target="q1Gav48uPuiSQeMXqH3i-3">
          <mxGeometry x="-0.3333" y="5" relative="1" as="geometry">
            <mxPoint x="295" y="200" as="targetPoint" />
            <mxPoint as="offset" />
          </mxGeometry>
        </mxCell>
        <mxCell id="q1Gav48uPuiSQeMXqH3i-39" value="&lt;font style=&quot;font-size: 13px;&quot;&gt;cl_init&lt;/font&gt;" style="ellipse;whiteSpace=wrap;html=1;strokeColor=#000000;" vertex="1" parent="1">
          <mxGeometry x="255" y="130" width="80" height="40" as="geometry" />
        </mxCell>
        <mxCell id="q1Gav48uPuiSQeMXqH3i-40" value="" style="rounded=0;orthogonalLoop=1;jettySize=auto;html=1;exitX=0;exitY=1;exitDx=0;exitDy=0;strokeColor=#000000;entryX=0.5;entryY=0;entryDx=0;entryDy=0;fillColor=#f5f5f5;" edge="1" parent="1" source="q1Gav48uPuiSQeMXqH3i-13" target="q1Gav48uPuiSQeMXqH3i-28">
          <mxGeometry x="-0.1944" y="-11" relative="1" as="geometry">
            <mxPoint x="352" y="304" as="sourcePoint" />
            <mxPoint x="240" y="345" as="targetPoint" />
            <mxPoint as="offset" />
          </mxGeometry>
        </mxCell>
        <mxCell id="q1Gav48uPuiSQeMXqH3i-41" value="&lt;b&gt;acq_no_lock&lt;/b&gt;" style="edgeLabel;html=1;align=center;verticalAlign=middle;resizable=0;points=[];" vertex="1" connectable="0" parent="q1Gav48uPuiSQeMXqH3i-40">
          <mxGeometry x="0.2163" relative="1" as="geometry">
            <mxPoint x="8" as="offset" />
          </mxGeometry>
        </mxCell>
      </root>
    </mxGraphModel>
  </diagram>
</mxfile>
